<?xml version="1.0" encoding="utf-8"?>
<!-- Generator: Adobe Illustrator 25.0.0, SVG Export Plug-In . SVG Version: 6.00 Build 0)  -->
<svg version="1.1" id="vector" xmlns="http://www.w3.org/2000/svg" xmlns:xlink="http://www.w3.org/1999/xlink" x="0px" y="0px"
	 viewBox="0 0 432 432" style="enable-background:new 0 0 432 432;" xml:space="preserve">
<style type="text/css">
	.st0{fill:#F4B400;}
	.st1{fill:#4285F4;}
	.st2{fill:#DB4437;}
	.st3{fill:#0F9D58;}
</style>
<path class="st0" d="M302.4,151.2V0H129.6v151.2 M172.8,108V43.2h86.4V108H172.8z"/>
<path class="st1" d="M410.4,432V280.8H237.6V432 M280.8,388.8V324h86.4v64.8H280.8z"/>
<path class="st2" d="M194.4,432V280.8H21.6V432 M64.8,388.8V324h86.4v64.8H64.8z"/>
<path class="st3" d="M237.6,194.4v-43.2h-43.2v43.2c-26,0-82.5,0-108,0c0,21.5,0,64.9,0,86.4h43.2v-43.2c50.8,0,122,0,172.8,0v43.2
	h43.2c0-21.5,0-64.9,0-86.4"/>
</svg>
